<?xml version="1.0" encoding="UTF-8" standalone="no"?>
<!DOCTYPE svg PUBLIC "-//W3C//DTD SVG 1.1//EN"
 "http://www.w3.org/Graphics/SVG/1.1/DTD/svg11.dtd">
<!-- Generated by graphviz version 2.43.0 (0)
 -->
<!-- Title: G Pages: 1 -->
<svg width="1271pt" height="98pt"
 viewBox="0.00 0.00 1271.00 98.00" xmlns="http://www.w3.org/2000/svg" xmlns:xlink="http://www.w3.org/1999/xlink">
<g id="graph0" class="graph" transform="scale(1 1) rotate(0) translate(4 94)">
<title>G</title>
<polygon fill="white" stroke="transparent" points="-4,4 -4,-94 1267,-94 1267,4 -4,4"/>
<!-- data.aws_eks_cluster.cluster -->
<g id="node1" class="node">
<title>data.aws_eks_cluster.cluster</title>
<polygon fill="none" stroke="black" points="456.5,-90 267.5,-90 267.5,-54 456.5,-54 456.5,-90"/>
<text text-anchor="middle" x="362" y="-68.3" font-family="sans-serif" font-size="14.00">data.aws_eks_cluster.cluster</text>
</g>
<!-- data.terraform_remote_state.eks -->
<g id="node3" class="node">
<title>data.terraform_remote_state.eks</title>
<polygon fill="none" stroke="black" points="214,-63 0,-63 0,-27 214,-27 214,-63"/>
<text text-anchor="middle" x="107" y="-41.3" font-family="sans-serif" font-size="14.00">data.terraform_remote_state.eks</text>
</g>
<!-- data.aws_eks_cluster.cluster&#45;&gt;data.terraform_remote_state.eks -->
<g id="edge1" class="edge">
<title>data.aws_eks_cluster.cluster&#45;&gt;data.terraform_remote_state.eks</title>
<path fill="none" stroke="black" d="M267.15,-61.98C253.1,-60.48 238.47,-58.92 224.02,-57.38"/>
<polygon fill="black" stroke="black" points="224.37,-53.9 214.06,-56.32 223.63,-60.86 224.37,-53.9"/>
</g>
<!-- data.aws_eks_cluster_auth.cluster -->
<g id="node2" class="node">
<title>data.aws_eks_cluster_auth.cluster</title>
<polygon fill="none" stroke="black" points="474,-36 250,-36 250,0 474,0 474,-36"/>
<text text-anchor="middle" x="362" y="-14.3" font-family="sans-serif" font-size="14.00">data.aws_eks_cluster_auth.cluster</text>
</g>
<!-- data.aws_eks_cluster_auth.cluster&#45;&gt;data.terraform_remote_state.eks -->
<g id="edge2" class="edge">
<title>data.aws_eks_cluster_auth.cluster&#45;&gt;data.terraform_remote_state.eks</title>
<path fill="none" stroke="black" d="M249.66,-29.88C241.18,-30.79 232.61,-31.7 224.1,-32.61"/>
<polygon fill="black" stroke="black" points="223.72,-29.13 214.15,-33.67 224.46,-36.09 223.72,-29.13"/>
</g>
<!-- aws_eks_fargate_profile.fargate_profile -->
<g id="node4" class="node">
<title>aws_eks_fargate_profile.fargate_profile</title>
<polygon fill="none" stroke="black" points="1159.5,-36 906.5,-36 906.5,0 1159.5,0 1159.5,-36"/>
<text text-anchor="middle" x="1033" y="-14.3" font-family="sans-serif" font-size="14.00">aws_eks_fargate_profile.fargate_profile</text>
</g>
<!-- aws_iam_role.fargate_profile_role -->
<g id="node5" class="node">
<title>aws_iam_role.fargate_profile_role</title>
<polygon fill="none" stroke="black" points="749,-90 528,-90 528,-54 749,-54 749,-90"/>
<text text-anchor="middle" x="638.5" y="-68.3" font-family="sans-serif" font-size="14.00">aws_iam_role.fargate_profile_role</text>
</g>
<!-- aws_eks_fargate_profile.fargate_profile&#45;&gt;aws_iam_role.fargate_profile_role -->
<g id="edge3" class="edge">
<title>aws_eks_fargate_profile.fargate_profile&#45;&gt;aws_iam_role.fargate_profile_role</title>
<path fill="none" stroke="black" d="M906.47,-31.74C872.83,-35.71 836.49,-40.26 803,-45 787.19,-47.24 770.56,-49.77 754.2,-52.37"/>
<polygon fill="black" stroke="black" points="753.38,-48.96 744.06,-53.99 754.48,-55.87 753.38,-48.96"/>
</g>
<!-- kubernetes_namespace_v1.fp_ns_app1 -->
<g id="node7" class="node">
<title>kubernetes_namespace_v1.fp_ns_app1</title>
<polygon fill="none" stroke="black" points="767,-36 510,-36 510,0 767,0 767,-36"/>
<text text-anchor="middle" x="638.5" y="-14.3" font-family="sans-serif" font-size="14.00">kubernetes_namespace_v1.fp_ns_app1</text>
</g>
<!-- aws_eks_fargate_profile.fargate_profile&#45;&gt;kubernetes_namespace_v1.fp_ns_app1 -->
<g id="edge4" class="edge">
<title>aws_eks_fargate_profile.fargate_profile&#45;&gt;kubernetes_namespace_v1.fp_ns_app1</title>
<path fill="none" stroke="black" d="M906.46,-18C865.24,-18 819.22,-18 777.16,-18"/>
<polygon fill="black" stroke="black" points="777.12,-14.5 767.12,-18 777.12,-21.5 777.12,-14.5"/>
</g>
<!-- aws_iam_role_policy_attachment.eks_fargate_pod_execution_role_policy -->
<g id="node6" class="node">
<title>aws_iam_role_policy_attachment.eks_fargate_pod_execution_role_policy</title>
<polygon fill="none" stroke="black" points="1263,-90 803,-90 803,-54 1263,-54 1263,-90"/>
<text text-anchor="middle" x="1033" y="-68.3" font-family="sans-serif" font-size="14.00">aws_iam_role_policy_attachment.eks_fargate_pod_execution_role_policy</text>
</g>
<!-- aws_iam_role_policy_attachment.eks_fargate_pod_execution_role_policy&#45;&gt;aws_iam_role.fargate_profile_role -->
<g id="edge5" class="edge">
<title>aws_iam_role_policy_attachment.eks_fargate_pod_execution_role_policy&#45;&gt;aws_iam_role.fargate_profile_role</title>
<path fill="none" stroke="black" d="M802.83,-72C787.96,-72 773.35,-72 759.36,-72"/>
<polygon fill="black" stroke="black" points="759.28,-68.5 749.28,-72 759.28,-75.5 759.28,-68.5"/>
</g>
<!-- kubernetes_namespace_v1.fp_ns_app1&#45;&gt;data.aws_eks_cluster_auth.cluster -->
<g id="edge6" class="edge">
<title>kubernetes_namespace_v1.fp_ns_app1&#45;&gt;data.aws_eks_cluster_auth.cluster</title>
<path fill="none" stroke="black" d="M509.89,-18C501.43,-18 492.92,-18 484.49,-18"/>
<polygon fill="black" stroke="black" points="484.26,-14.5 474.26,-18 484.26,-21.5 484.26,-14.5"/>
</g>
</g>
</svg>
