<?xml version="1.0" encoding="UTF-8" standalone="no"?>
<!DOCTYPE svg PUBLIC "-//W3C//DTD SVG 1.1//EN"
 "http://www.w3.org/Graphics/SVG/1.1/DTD/svg11.dtd">
<!-- Generated by graphviz version 2.43.0 (0)
 -->
<!-- Title: G Pages: 1 -->
<svg width="1309pt" height="206pt"
 viewBox="0.00 0.00 1309.00 206.00" xmlns="http://www.w3.org/2000/svg" xmlns:xlink="http://www.w3.org/1999/xlink">
<g id="graph0" class="graph" transform="scale(1 1) rotate(0) translate(4 202)">
<title>G</title>
<polygon fill="white" stroke="transparent" points="-4,4 -4,-202 1305,-202 1305,4 -4,4"/>
<!-- data.aws_eks_cluster.cluster -->
<g id="node1" class="node">
<title>data.aws_eks_cluster.cluster</title>
<polygon fill="none" stroke="black" points="456.5,-144 267.5,-144 267.5,-108 456.5,-108 456.5,-144"/>
<text text-anchor="middle" x="362" y="-122.3" font-family="sans-serif" font-size="14.00">data.aws_eks_cluster.cluster</text>
</g>
<!-- data.terraform_remote_state.eks -->
<g id="node3" class="node">
<title>data.terraform_remote_state.eks</title>
<polygon fill="none" stroke="black" points="214,-117 0,-117 0,-81 214,-81 214,-117"/>
<text text-anchor="middle" x="107" y="-95.3" font-family="sans-serif" font-size="14.00">data.terraform_remote_state.eks</text>
</g>
<!-- data.aws_eks_cluster.cluster&#45;&gt;data.terraform_remote_state.eks -->
<g id="edge1" class="edge">
<title>data.aws_eks_cluster.cluster&#45;&gt;data.terraform_remote_state.eks</title>
<path fill="none" stroke="black" d="M267.15,-115.98C253.1,-114.48 238.47,-112.92 224.02,-111.38"/>
<polygon fill="black" stroke="black" points="224.37,-107.9 214.06,-110.32 223.63,-114.86 224.37,-107.9"/>
</g>
<!-- data.aws_eks_cluster_auth.cluster -->
<g id="node2" class="node">
<title>data.aws_eks_cluster_auth.cluster</title>
<polygon fill="none" stroke="black" points="474,-90 250,-90 250,-54 474,-54 474,-90"/>
<text text-anchor="middle" x="362" y="-68.3" font-family="sans-serif" font-size="14.00">data.aws_eks_cluster_auth.cluster</text>
</g>
<!-- data.aws_eks_cluster_auth.cluster&#45;&gt;data.terraform_remote_state.eks -->
<g id="edge2" class="edge">
<title>data.aws_eks_cluster_auth.cluster&#45;&gt;data.terraform_remote_state.eks</title>
<path fill="none" stroke="black" d="M249.66,-83.88C241.18,-84.79 232.61,-85.7 224.1,-86.61"/>
<polygon fill="black" stroke="black" points="223.72,-83.13 214.15,-87.67 224.46,-90.09 223.72,-83.13"/>
</g>
<!-- aws_acm_certificate.acm_cert -->
<g id="node4" class="node">
<title>aws_acm_certificate.acm_cert</title>
<polygon fill="none" stroke="black" points="1022,-198 821,-198 821,-162 1022,-162 1022,-198"/>
<text text-anchor="middle" x="921.5" y="-176.3" font-family="sans-serif" font-size="14.00">aws_acm_certificate.acm_cert</text>
</g>
<!-- kubernetes_deployment_v1.myapp1 -->
<g id="node5" class="node">
<title>kubernetes_deployment_v1.myapp1</title>
<polygon fill="none" stroke="black" points="745,-144 510,-144 510,-108 745,-108 745,-144"/>
<text text-anchor="middle" x="627.5" y="-122.3" font-family="sans-serif" font-size="14.00">kubernetes_deployment_v1.myapp1</text>
</g>
<!-- kubernetes_deployment_v1.myapp1&#45;&gt;data.aws_eks_cluster_auth.cluster -->
<g id="edge3" class="edge">
<title>kubernetes_deployment_v1.myapp1&#45;&gt;data.aws_eks_cluster_auth.cluster</title>
<path fill="none" stroke="black" d="M538.39,-107.94C513.56,-102.86 486.4,-97.29 461.03,-92.09"/>
<polygon fill="black" stroke="black" points="461.52,-88.62 451.02,-90.04 460.12,-95.48 461.52,-88.62"/>
</g>
<!-- kubernetes_deployment_v1.myapp2 -->
<g id="node6" class="node">
<title>kubernetes_deployment_v1.myapp2</title>
<polygon fill="none" stroke="black" points="745,-90 510,-90 510,-54 745,-54 745,-90"/>
<text text-anchor="middle" x="627.5" y="-68.3" font-family="sans-serif" font-size="14.00">kubernetes_deployment_v1.myapp2</text>
</g>
<!-- kubernetes_deployment_v1.myapp2&#45;&gt;data.aws_eks_cluster_auth.cluster -->
<g id="edge4" class="edge">
<title>kubernetes_deployment_v1.myapp2&#45;&gt;data.aws_eks_cluster_auth.cluster</title>
<path fill="none" stroke="black" d="M509.77,-72C501.36,-72 492.86,-72 484.42,-72"/>
<polygon fill="black" stroke="black" points="484.16,-68.5 474.16,-72 484.16,-75.5 484.16,-68.5"/>
</g>
<!-- kubernetes_deployment_v1.myapp3 -->
<g id="node7" class="node">
<title>kubernetes_deployment_v1.myapp3</title>
<polygon fill="none" stroke="black" points="745,-36 510,-36 510,0 745,0 745,-36"/>
<text text-anchor="middle" x="627.5" y="-14.3" font-family="sans-serif" font-size="14.00">kubernetes_deployment_v1.myapp3</text>
</g>
<!-- kubernetes_deployment_v1.myapp3&#45;&gt;data.aws_eks_cluster_auth.cluster -->
<g id="edge5" class="edge">
<title>kubernetes_deployment_v1.myapp3&#45;&gt;data.aws_eks_cluster_auth.cluster</title>
<path fill="none" stroke="black" d="M538.39,-36.06C513.56,-41.14 486.4,-46.71 461.03,-51.91"/>
<polygon fill="black" stroke="black" points="460.12,-48.52 451.02,-53.96 461.52,-55.38 460.12,-48.52"/>
</g>
<!-- kubernetes_ingress_v1.ingress -->
<g id="node8" class="node">
<title>kubernetes_ingress_v1.ingress</title>
<polygon fill="none" stroke="black" points="1301,-117 1098,-117 1098,-81 1301,-81 1301,-117"/>
<text text-anchor="middle" x="1199.5" y="-95.3" font-family="sans-serif" font-size="14.00">kubernetes_ingress_v1.ingress</text>
</g>
<!-- kubernetes_ingress_v1.ingress&#45;&gt;aws_acm_certificate.acm_cert -->
<g id="edge6" class="edge">
<title>kubernetes_ingress_v1.ingress&#45;&gt;aws_acm_certificate.acm_cert</title>
<path fill="none" stroke="black" d="M1158.57,-117.07C1131.72,-128.66 1095.27,-143.29 1062,-153 1052.31,-155.83 1042.15,-158.44 1031.93,-160.84"/>
<polygon fill="black" stroke="black" points="1031.09,-157.44 1022.11,-163.07 1032.64,-164.26 1031.09,-157.44"/>
</g>
<!-- kubernetes_service_v1.myapp1_np_service -->
<g id="node9" class="node">
<title>kubernetes_service_v1.myapp1_np_service</title>
<polygon fill="none" stroke="black" points="1062,-144 781,-144 781,-108 1062,-108 1062,-144"/>
<text text-anchor="middle" x="921.5" y="-122.3" font-family="sans-serif" font-size="14.00">kubernetes_service_v1.myapp1_np_service</text>
</g>
<!-- kubernetes_ingress_v1.ingress&#45;&gt;kubernetes_service_v1.myapp1_np_service -->
<g id="edge7" class="edge">
<title>kubernetes_ingress_v1.ingress&#45;&gt;kubernetes_service_v1.myapp1_np_service</title>
<path fill="none" stroke="black" d="M1097.69,-108.86C1089.39,-109.67 1080.89,-110.51 1072.33,-111.34"/>
<polygon fill="black" stroke="black" points="1071.88,-107.87 1062.27,-112.33 1072.56,-114.84 1071.88,-107.87"/>
</g>
<!-- kubernetes_service_v1.myapp2_np_service -->
<g id="node10" class="node">
<title>kubernetes_service_v1.myapp2_np_service</title>
<polygon fill="none" stroke="black" points="1062,-90 781,-90 781,-54 1062,-54 1062,-90"/>
<text text-anchor="middle" x="921.5" y="-68.3" font-family="sans-serif" font-size="14.00">kubernetes_service_v1.myapp2_np_service</text>
</g>
<!-- kubernetes_ingress_v1.ingress&#45;&gt;kubernetes_service_v1.myapp2_np_service -->
<g id="edge8" class="edge">
<title>kubernetes_ingress_v1.ingress&#45;&gt;kubernetes_service_v1.myapp2_np_service</title>
<path fill="none" stroke="black" d="M1097.69,-89.14C1089.39,-88.33 1080.89,-87.49 1072.33,-86.66"/>
<polygon fill="black" stroke="black" points="1072.56,-83.16 1062.27,-85.67 1071.88,-90.13 1072.56,-83.16"/>
</g>
<!-- kubernetes_service_v1.myapp3_np_service -->
<g id="node11" class="node">
<title>kubernetes_service_v1.myapp3_np_service</title>
<polygon fill="none" stroke="black" points="1062,-36 781,-36 781,0 1062,0 1062,-36"/>
<text text-anchor="middle" x="921.5" y="-14.3" font-family="sans-serif" font-size="14.00">kubernetes_service_v1.myapp3_np_service</text>
</g>
<!-- kubernetes_ingress_v1.ingress&#45;&gt;kubernetes_service_v1.myapp3_np_service -->
<g id="edge9" class="edge">
<title>kubernetes_ingress_v1.ingress&#45;&gt;kubernetes_service_v1.myapp3_np_service</title>
<path fill="none" stroke="black" d="M1158.57,-80.93C1131.72,-69.34 1095.27,-54.71 1062,-45 1053.92,-42.64 1045.51,-40.43 1037,-38.37"/>
<polygon fill="black" stroke="black" points="1037.53,-34.9 1026.99,-36.02 1035.93,-41.71 1037.53,-34.9"/>
</g>
<!-- kubernetes_service_v1.myapp1_np_service&#45;&gt;kubernetes_deployment_v1.myapp1 -->
<g id="edge10" class="edge">
<title>kubernetes_service_v1.myapp1_np_service&#45;&gt;kubernetes_deployment_v1.myapp1</title>
<path fill="none" stroke="black" d="M780.91,-126C772.47,-126 764,-126 755.61,-126"/>
<polygon fill="black" stroke="black" points="755.43,-122.5 745.43,-126 755.43,-129.5 755.43,-122.5"/>
</g>
<!-- kubernetes_service_v1.myapp2_np_service&#45;&gt;kubernetes_deployment_v1.myapp2 -->
<g id="edge11" class="edge">
<title>kubernetes_service_v1.myapp2_np_service&#45;&gt;kubernetes_deployment_v1.myapp2</title>
<path fill="none" stroke="black" d="M780.91,-72C772.47,-72 764,-72 755.61,-72"/>
<polygon fill="black" stroke="black" points="755.43,-68.5 745.43,-72 755.43,-75.5 755.43,-68.5"/>
</g>
<!-- kubernetes_service_v1.myapp3_np_service&#45;&gt;kubernetes_deployment_v1.myapp3 -->
<g id="edge12" class="edge">
<title>kubernetes_service_v1.myapp3_np_service&#45;&gt;kubernetes_deployment_v1.myapp3</title>
<path fill="none" stroke="black" d="M780.91,-18C772.47,-18 764,-18 755.61,-18"/>
<polygon fill="black" stroke="black" points="755.43,-14.5 745.43,-18 755.43,-21.5 755.43,-14.5"/>
</g>
</g>
</svg>
