<?xml version="1.0" encoding="UTF-8" standalone="no"?>
<!DOCTYPE svg PUBLIC "-//W3C//DTD SVG 1.1//EN"
 "http://www.w3.org/Graphics/SVG/1.1/DTD/svg11.dtd">
<!-- Generated by graphviz version 2.43.0 (0)
 -->
<!-- Title: G Pages: 1 -->
<svg width="1268pt" height="152pt"
 viewBox="0.00 0.00 1268.00 152.00" xmlns="http://www.w3.org/2000/svg" xmlns:xlink="http://www.w3.org/1999/xlink">
<g id="graph0" class="graph" transform="scale(1 1) rotate(0) translate(4 148)">
<title>G</title>
<polygon fill="white" stroke="transparent" points="-4,4 -4,-148 1264,-148 1264,4 -4,4"/>
<!-- data.aws_eks_cluster_auth.cluster -->
<g id="node1" class="node">
<title>data.aws_eks_cluster_auth.cluster</title>
<polygon fill="none" stroke="black" points="474,-36 250,-36 250,0 474,0 474,-36"/>
<text text-anchor="middle" x="362" y="-14.3" font-family="sans-serif" font-size="14.00">data.aws_eks_cluster_auth.cluster</text>
</g>
<!-- data.terraform_remote_state.eks -->
<g id="node3" class="node">
<title>data.terraform_remote_state.eks</title>
<polygon fill="none" stroke="black" points="214,-63 0,-63 0,-27 214,-27 214,-63"/>
<text text-anchor="middle" x="107" y="-41.3" font-family="sans-serif" font-size="14.00">data.terraform_remote_state.eks</text>
</g>
<!-- data.aws_eks_cluster_auth.cluster&#45;&gt;data.terraform_remote_state.eks -->
<g id="edge1" class="edge">
<title>data.aws_eks_cluster_auth.cluster&#45;&gt;data.terraform_remote_state.eks</title>
<path fill="none" stroke="black" d="M249.66,-29.88C241.18,-30.79 232.61,-31.7 224.1,-32.61"/>
<polygon fill="black" stroke="black" points="223.72,-29.13 214.15,-33.67 224.46,-36.09 223.72,-29.13"/>
</g>
<!-- data.http.lbc_iam_policy -->
<g id="node2" class="node">
<title>data.http.lbc_iam_policy</title>
<polygon fill="none" stroke="black" points="188.5,-144 25.5,-144 25.5,-108 188.5,-108 188.5,-144"/>
<text text-anchor="middle" x="107" y="-122.3" font-family="sans-serif" font-size="14.00">data.http.lbc_iam_policy</text>
</g>
<!-- aws_iam_policy.lbc_iam_policy -->
<g id="node4" class="node">
<title>aws_iam_policy.lbc_iam_policy</title>
<polygon fill="none" stroke="black" points="464.5,-144 259.5,-144 259.5,-108 464.5,-108 464.5,-144"/>
<text text-anchor="middle" x="362" y="-122.3" font-family="sans-serif" font-size="14.00">aws_iam_policy.lbc_iam_policy</text>
</g>
<!-- aws_iam_policy.lbc_iam_policy&#45;&gt;data.http.lbc_iam_policy -->
<g id="edge2" class="edge">
<title>aws_iam_policy.lbc_iam_policy&#45;&gt;data.http.lbc_iam_policy</title>
<path fill="none" stroke="black" d="M259.19,-126C239.19,-126 218.34,-126 198.74,-126"/>
<polygon fill="black" stroke="black" points="198.62,-122.5 188.62,-126 198.62,-129.5 198.62,-122.5"/>
</g>
<!-- aws_iam_role.lbc_iam_role -->
<g id="node5" class="node">
<title>aws_iam_role.lbc_iam_role</title>
<polygon fill="none" stroke="black" points="453,-90 271,-90 271,-54 453,-54 453,-90"/>
<text text-anchor="middle" x="362" y="-68.3" font-family="sans-serif" font-size="14.00">aws_iam_role.lbc_iam_role</text>
</g>
<!-- aws_iam_role.lbc_iam_role&#45;&gt;data.terraform_remote_state.eks -->
<g id="edge3" class="edge">
<title>aws_iam_role.lbc_iam_role&#45;&gt;data.terraform_remote_state.eks</title>
<path fill="none" stroke="black" d="M270.73,-62.37C255.72,-60.76 239.95,-59.08 224.4,-57.42"/>
<polygon fill="black" stroke="black" points="224.53,-53.92 214.22,-56.34 223.79,-60.88 224.53,-53.92"/>
</g>
<!-- aws_iam_role_policy_attachment.lbc_iam_role_policy_attach -->
<g id="node6" class="node">
<title>aws_iam_role_policy_attachment.lbc_iam_role_policy_attach</title>
<polygon fill="none" stroke="black" points="896,-117 510,-117 510,-81 896,-81 896,-117"/>
<text text-anchor="middle" x="703" y="-95.3" font-family="sans-serif" font-size="14.00">aws_iam_role_policy_attachment.lbc_iam_role_policy_attach</text>
</g>
<!-- aws_iam_role_policy_attachment.lbc_iam_role_policy_attach&#45;&gt;aws_iam_policy.lbc_iam_policy -->
<g id="edge4" class="edge">
<title>aws_iam_role_policy_attachment.lbc_iam_role_policy_attach&#45;&gt;aws_iam_policy.lbc_iam_policy</title>
<path fill="none" stroke="black" d="M509.72,-114.31C497.93,-115.25 486.3,-116.18 475.05,-117.08"/>
<polygon fill="black" stroke="black" points="474.52,-113.61 464.83,-117.89 475.07,-120.58 474.52,-113.61"/>
</g>
<!-- aws_iam_role_policy_attachment.lbc_iam_role_policy_attach&#45;&gt;aws_iam_role.lbc_iam_role -->
<g id="edge5" class="edge">
<title>aws_iam_role_policy_attachment.lbc_iam_role_policy_attach&#45;&gt;aws_iam_role.lbc_iam_role</title>
<path fill="none" stroke="black" d="M509.72,-83.69C493.81,-82.42 478.18,-81.17 463.39,-80"/>
<polygon fill="black" stroke="black" points="463.54,-76.5 453.3,-79.19 462.99,-83.47 463.54,-76.5"/>
</g>
<!-- helm_release.loadbalancer_controller -->
<g id="node7" class="node">
<title>helm_release.loadbalancer_controller</title>
<polygon fill="none" stroke="black" points="824,-36 582,-36 582,0 824,0 824,-36"/>
<text text-anchor="middle" x="703" y="-14.3" font-family="sans-serif" font-size="14.00">helm_release.loadbalancer_controller</text>
</g>
<!-- helm_release.loadbalancer_controller&#45;&gt;data.aws_eks_cluster_auth.cluster -->
<g id="edge6" class="edge">
<title>helm_release.loadbalancer_controller&#45;&gt;data.aws_eks_cluster_auth.cluster</title>
<path fill="none" stroke="black" d="M581.53,-18C549.93,-18 515.85,-18 484.21,-18"/>
<polygon fill="black" stroke="black" points="484.03,-14.5 474.03,-18 484.03,-21.5 484.03,-14.5"/>
</g>
<!-- helm_release.loadbalancer_controller&#45;&gt;aws_iam_role.lbc_iam_role -->
<g id="edge7" class="edge">
<title>helm_release.loadbalancer_controller&#45;&gt;aws_iam_role.lbc_iam_role</title>
<path fill="none" stroke="black" d="M588.65,-36.06C548.01,-42.53 502.52,-49.77 463.09,-56.06"/>
<polygon fill="black" stroke="black" points="462.53,-52.6 453.21,-57.63 463.63,-59.51 462.53,-52.6"/>
</g>
<!-- kubernetes_ingress_class_v1.ingress_class_default -->
<g id="node8" class="node">
<title>kubernetes_ingress_class_v1.ingress_class_default</title>
<polygon fill="none" stroke="black" points="1260,-36 932,-36 932,0 1260,0 1260,-36"/>
<text text-anchor="middle" x="1096" y="-14.3" font-family="sans-serif" font-size="14.00">kubernetes_ingress_class_v1.ingress_class_default</text>
</g>
<!-- kubernetes_ingress_class_v1.ingress_class_default&#45;&gt;helm_release.loadbalancer_controller -->
<g id="edge8" class="edge">
<title>kubernetes_ingress_class_v1.ingress_class_default&#45;&gt;helm_release.loadbalancer_controller</title>
<path fill="none" stroke="black" d="M931.73,-18C899.23,-18 865.51,-18 834.29,-18"/>
<polygon fill="black" stroke="black" points="834.25,-14.5 824.25,-18 834.25,-21.5 834.25,-14.5"/>
</g>
</g>
</svg>
