<?xml version="1.0" encoding="UTF-8" standalone="no"?>
<!DOCTYPE svg PUBLIC "-//W3C//DTD SVG 1.1//EN"
 "http://www.w3.org/Graphics/SVG/1.1/DTD/svg11.dtd">
<!-- Generated by graphviz version 2.43.0 (0)
 -->
<!-- Title: G Pages: 1 -->
<svg width="990pt" height="152pt"
 viewBox="0.00 0.00 990.00 152.00" xmlns="http://www.w3.org/2000/svg" xmlns:xlink="http://www.w3.org/1999/xlink">
<g id="graph0" class="graph" transform="scale(1 1) rotate(0) translate(4 148)">
<title>G</title>
<polygon fill="white" stroke="transparent" points="-4,4 -4,-148 986,-148 986,4 -4,4"/>
<!-- data.aws_eks_cluster_auth.cluster -->
<g id="node1" class="node">
<title>data.aws_eks_cluster_auth.cluster</title>
<polygon fill="none" stroke="black" points="490.5,-36 266.5,-36 266.5,0 490.5,0 490.5,-36"/>
<text text-anchor="middle" x="378.5" y="-14.3" font-family="sans-serif" font-size="14.00">data.aws_eks_cluster_auth.cluster</text>
</g>
<!-- data.terraform_remote_state.eks -->
<g id="node2" class="node">
<title>data.terraform_remote_state.eks</title>
<polygon fill="none" stroke="black" points="214,-63 0,-63 0,-27 214,-27 214,-63"/>
<text text-anchor="middle" x="107" y="-41.3" font-family="sans-serif" font-size="14.00">data.terraform_remote_state.eks</text>
</g>
<!-- data.aws_eks_cluster_auth.cluster&#45;&gt;data.terraform_remote_state.eks -->
<g id="edge1" class="edge">
<title>data.aws_eks_cluster_auth.cluster&#45;&gt;data.terraform_remote_state.eks</title>
<path fill="none" stroke="black" d="M266.33,-29.14C252.44,-30.53 238.21,-31.95 224.26,-33.35"/>
<polygon fill="black" stroke="black" points="223.75,-29.89 214.15,-34.37 224.45,-36.85 223.75,-29.89"/>
</g>
<!-- aws_iam_policy.externaldns_iam_policy -->
<g id="node3" class="node">
<title>aws_iam_policy.externaldns_iam_policy</title>
<polygon fill="none" stroke="black" points="507,-144 250,-144 250,-108 507,-108 507,-144"/>
<text text-anchor="middle" x="378.5" y="-122.3" font-family="sans-serif" font-size="14.00">aws_iam_policy.externaldns_iam_policy</text>
</g>
<!-- aws_iam_role.externaldns_iam_role -->
<g id="node4" class="node">
<title>aws_iam_role.externaldns_iam_role</title>
<polygon fill="none" stroke="black" points="495.5,-90 261.5,-90 261.5,-54 495.5,-54 495.5,-90"/>
<text text-anchor="middle" x="378.5" y="-68.3" font-family="sans-serif" font-size="14.00">aws_iam_role.externaldns_iam_role</text>
</g>
<!-- aws_iam_role.externaldns_iam_role&#45;&gt;data.terraform_remote_state.eks -->
<g id="edge2" class="edge">
<title>aws_iam_role.externaldns_iam_role&#45;&gt;data.terraform_remote_state.eks</title>
<path fill="none" stroke="black" d="M261.25,-60.35C249.01,-59.13 236.56,-57.88 224.32,-56.65"/>
<polygon fill="black" stroke="black" points="224.39,-53.14 214.09,-55.63 223.69,-60.11 224.39,-53.14"/>
</g>
<!-- aws_iam_role_policy_attachment.externaldns_iam_role_policy_attach -->
<g id="node5" class="node">
<title>aws_iam_role_policy_attachment.externaldns_iam_role_policy_attach</title>
<polygon fill="none" stroke="black" points="982,-117 543,-117 543,-81 982,-81 982,-117"/>
<text text-anchor="middle" x="762.5" y="-95.3" font-family="sans-serif" font-size="14.00">aws_iam_role_policy_attachment.externaldns_iam_role_policy_attach</text>
</g>
<!-- aws_iam_role_policy_attachment.externaldns_iam_role_policy_attach&#45;&gt;aws_iam_policy.externaldns_iam_policy -->
<g id="edge3" class="edge">
<title>aws_iam_role_policy_attachment.externaldns_iam_role_policy_attach&#45;&gt;aws_iam_policy.externaldns_iam_policy</title>
<path fill="none" stroke="black" d="M542.89,-114.45C534.34,-115.06 525.87,-115.65 517.55,-116.24"/>
<polygon fill="black" stroke="black" points="517.2,-112.76 507.48,-116.95 517.7,-119.74 517.2,-112.76"/>
</g>
<!-- aws_iam_role_policy_attachment.externaldns_iam_role_policy_attach&#45;&gt;aws_iam_role.externaldns_iam_role -->
<g id="edge4" class="edge">
<title>aws_iam_role_policy_attachment.externaldns_iam_role_policy_attach&#45;&gt;aws_iam_role.externaldns_iam_role</title>
<path fill="none" stroke="black" d="M542.89,-83.55C530.24,-82.65 517.75,-81.77 505.66,-80.92"/>
<polygon fill="black" stroke="black" points="505.83,-77.42 495.61,-80.21 505.33,-84.4 505.83,-77.42"/>
</g>
<!-- helm_release.external_dns -->
<g id="node6" class="node">
<title>helm_release.external_dns</title>
<polygon fill="none" stroke="black" points="852,-36 673,-36 673,0 852,0 852,-36"/>
<text text-anchor="middle" x="762.5" y="-14.3" font-family="sans-serif" font-size="14.00">helm_release.external_dns</text>
</g>
<!-- helm_release.external_dns&#45;&gt;data.aws_eks_cluster_auth.cluster -->
<g id="edge5" class="edge">
<title>helm_release.external_dns&#45;&gt;data.aws_eks_cluster_auth.cluster</title>
<path fill="none" stroke="black" d="M672.9,-18C621.76,-18 556.7,-18 500.85,-18"/>
<polygon fill="black" stroke="black" points="500.54,-14.5 490.54,-18 500.54,-21.5 500.54,-14.5"/>
</g>
<!-- helm_release.external_dns&#45;&gt;aws_iam_role.externaldns_iam_role -->
<g id="edge6" class="edge">
<title>helm_release.external_dns&#45;&gt;aws_iam_role.externaldns_iam_role</title>
<path fill="none" stroke="black" d="M672.9,-30.52C623.21,-37.55 560.38,-46.43 505.63,-54.17"/>
<polygon fill="black" stroke="black" points="504.92,-50.74 495.51,-55.6 505.9,-57.67 504.92,-50.74"/>
</g>
</g>
</svg>
